<svg xmlns="http://www.w3.org/2000/svg" xmlns:xlink="http://www.w3.org/1999/xlink" viewBox="0,0,256,256" width="42px" height="42px" fill-rule="nonzero"><g transform="translate(14.08,14.08) scale(0.89,0.89)"><g fill="#075507" fill-rule="nonzero" stroke="none" stroke-width="1" stroke-linecap="butt" stroke-linejoin="miter" stroke-miterlimit="10" stroke-dasharray="" stroke-dashoffset="0" font-family="none" font-weight="none" font-size="none" text-anchor="none" style="mix-blend-mode: normal"><path d="M71.72315,258.8764c-41.20019,0 -74.59955,-33.39936 -74.59955,-74.59955v-112.55371c0,-41.20019 33.39936,-74.59955 74.59955,-74.59955h112.55371c41.20019,0 74.59955,33.39936 74.59955,74.59955v112.55371c0,41.20019 -33.39936,74.59955 -74.59955,74.59955z" id="shape"></path></g><g fill="#ffffff" fill-rule="nonzero" stroke="none" stroke-width="1" stroke-linecap="butt" stroke-linejoin="miter" stroke-miterlimit="10" stroke-dasharray="" stroke-dashoffset="0" font-family="none" font-weight="none" font-size="none" text-anchor="none" style="mix-blend-mode: normal"><g transform="scale(8,8)"><path d="M14,2c-0.45898,0 -0.85937,0.31299 -0.9707,0.75781l-0.43555,1.74609c-0.80225,0.23779 -1.57617,0.55811 -2.3125,0.95898l-1.54492,-0.92773c-0.39307,-0.23535 -0.89844,-0.17334 -1.22266,0.15039l-2.82812,2.82813c-0.32471,0.32422 -0.38672,0.8291 -0.15039,1.22266l0.92773,1.54492c-0.40088,0.73633 -0.72119,1.51025 -0.95898,2.3125l-1.74609,0.43555c-0.44482,0.11133 -0.75781,0.51172 -0.75781,0.9707v4c0,0.45898 0.31299,0.85938 0.75781,0.9707l1.74609,0.43555c0.23779,0.80225 0.55811,1.57617 0.95898,2.3125l-0.92578,1.54492c-0.23633,0.39355 -0.17432,0.89648 0.15039,1.2207l2.82813,2.82813c0.32422,0.32422 0.82764,0.3877 1.2207,0.15039l1.54492,-0.92578c0.73633,0.40088 1.51025,0.72119 2.3125,0.95898l0.43555,1.74609c0.11133,0.44482 0.51172,0.75781 0.9707,0.75781h4c0.45898,0 0.85938,-0.31299 0.9707,-0.75781l0.43555,-1.74609c0.80225,-0.23779 1.57617,-0.55811 2.3125,-0.95898l1.54492,0.92578c0.39453,0.2373 0.89648,0.17383 1.2207,-0.15039l2.82813,-2.82812c0.32471,-0.32422 0.38672,-0.82715 0.15039,-1.2207l-0.92578,-1.54492c0.40088,-0.73633 0.72119,-1.51025 0.95898,-2.3125l1.74609,-0.43555c0.44482,-0.11133 0.75781,-0.51172 0.75781,-0.9707v-4c0,-0.45898 -0.31299,-0.85937 -0.75781,-0.9707l-1.74609,-0.43555c-0.23779,-0.80225 -0.55811,-1.57617 -0.95898,-2.3125l0.92578,-1.54492c0.23633,-0.39355 0.17432,-0.89648 -0.15039,-1.2207l-2.82812,-2.82812c-0.32422,-0.32373 -0.82617,-0.38574 -1.2207,-0.15039l-1.54492,0.92578c-0.73633,-0.40088 -1.51025,-0.72119 -2.3125,-0.95898l-0.43555,-1.74609c-0.11133,-0.44482 -0.51172,-0.75781 -0.9707,-0.75781zM16,7c4.96252,0 9,4.03748 9,9c0,4.96252 -4.03748,9 -9,9c-4.96252,0 -9,-4.03748 -9,-9c0,-4.96252 4.03748,-9 9,-9zM16,8c-4.41113,0 -8,3.58887 -8,8c0,4.41113 3.58887,8 8,8c4.41113,0 8,-3.58887 8,-8c0,-4.41113 -3.58887,-8 -8,-8zM15,9h3c0.18018,0 0.34668,0.09717 0.43555,0.25391c0.08887,0.15674 0.08496,0.34912 -0.00781,0.50391l-2.54492,4.24219h3.61719c0.18359,0 0.35205,0.09961 0.43945,0.26172c0.0874,0.16162 0.07959,0.35986 -0.02148,0.51367l-5.25,8c-0.09473,0.14453 -0.25391,0.22461 -0.41797,0.22461c-0.06738,0 -0.13623,-0.01465 -0.20117,-0.04297c-0.22314,-0.09766 -0.34277,-0.3418 -0.2832,-0.57812l1.59375,-6.37891h-2.85937c-0.1792,0 -0.34424,-0.09668 -0.43359,-0.25195c-0.08936,-0.15527 -0.08789,-0.34521 0.00195,-0.5l2.5,-6c0.08984,-0.15381 0.25391,-0.24805 0.43164,-0.24805z"></path></g></g></g></svg>